# MagicaVoxel @ Ephtracy

# material
mtllib Button_Green.mtl
usemtl palette

# normals
vn -1 0 0
vn 1 0 0
vn 0 0 1
vn 0 0 -1
vn 0 -1 0
vn 0 1 0

# texcoords
vt 0.798828 0.5
vt 0.841797 0.5
vt 0.884766 0.5
vt 0.958984 0.5

# verts
v -8.5 0 2.5
v -8.5 0 -2.5
v -8.5 1 2.5
v -8.5 1 -2.5
v -7.5 0 4.5
v -7.5 0 2.5
v -7.5 0 -2.5
v -7.5 0 -4.5
v -7.5 1 4.5
v -7.5 1 2.5
v -7.5 1 -2.5
v -7.5 1 -4.5
v -6.5 0 6.5
v -6.5 0 4.5
v -6.5 0 -4.5
v -6.5 0 -6.5
v -6.5 1 6.5
v -6.5 1 4.5
v -6.5 1 2.5
v -6.5 1 -2.5
v -6.5 1 -4.5
v -6.5 1 -6.5
v -6.5 4 2.5
v -6.5 4 -2.5
v -5.5 1 4.5
v -5.5 1 2.5
v -5.5 1 -2.5
v -5.5 1 -4.5
v -5.5 4 4.5
v -5.5 4 2.5
v -5.5 4 -2.5
v -5.5 4 -4.5
v -4.5 0 7.5
v -4.5 0 6.5
v -4.5 0 -6.5
v -4.5 0 -7.5
v -4.5 1 7.5
v -4.5 1 6.5
v -4.5 1 5.5
v -4.5 1 4.5
v -4.5 1 -4.5
v -4.5 1 -5.5
v -4.5 1 -6.5
v -4.5 1 -7.5
v -4.5 4 5.5
v -4.5 4 4.5
v -4.5 4 -4.5
v -4.5 4 -5.5
v -2.5 0 8.5
v -2.5 0 7.5
v -2.5 0 -7.5
v -2.5 0 -8.5
v -2.5 1 8.5
v -2.5 1 7.5
v -2.5 1 6.5
v -2.5 1 5.5
v -2.5 1 -5.5
v -2.5 1 -6.5
v -2.5 1 -7.5
v -2.5 1 -8.5
v -2.5 4 6.5
v -2.5 4 5.5
v -2.5 4 -5.5
v -2.5 4 -6.5
v 2.5 0 8.5
v 2.5 0 7.5
v 2.5 0 -7.5
v 2.5 0 -8.5
v 2.5 1 8.5
v 2.5 1 7.5
v 2.5 1 6.5
v 2.5 1 5.5
v 2.5 1 -5.5
v 2.5 1 -6.5
v 2.5 1 -7.5
v 2.5 1 -8.5
v 2.5 4 6.5
v 2.5 4 5.5
v 2.5 4 -5.5
v 2.5 4 -6.5
v 4.5 0 7.5
v 4.5 0 6.5
v 4.5 0 -6.5
v 4.5 0 -7.5
v 4.5 1 7.5
v 4.5 1 6.5
v 4.5 1 5.5
v 4.5 1 4.5
v 4.5 1 -4.5
v 4.5 1 -5.5
v 4.5 1 -6.5
v 4.5 1 -7.5
v 4.5 4 5.5
v 4.5 4 4.5
v 4.5 4 -4.5
v 4.5 4 -5.5
v 5.5 1 4.5
v 5.5 1 2.5
v 5.5 1 -2.5
v 5.5 1 -4.5
v 5.5 4 4.5
v 5.5 4 2.5
v 5.5 4 -2.5
v 5.5 4 -4.5
v 6.5 0 6.5
v 6.5 0 4.5
v 6.5 0 -4.5
v 6.5 0 -6.5
v 6.5 1 6.5
v 6.5 1 4.5
v 6.5 1 2.5
v 6.5 1 -2.5
v 6.5 1 -4.5
v 6.5 1 -6.5
v 6.5 4 2.5
v 6.5 4 -2.5
v 7.5 0 4.5
v 7.5 0 2.5
v 7.5 0 -2.5
v 7.5 0 -4.5
v 7.5 1 4.5
v 7.5 1 2.5
v 7.5 1 -2.5
v 7.5 1 -4.5
v 8.5 0 2.5
v 8.5 0 -2.5
v 8.5 1 2.5
v 8.5 1 -2.5
v -2.5 0 8.5
v -2.5 1 8.5
v 2.5 0 8.5
v 2.5 1 8.5
v -4.5 0 7.5
v -4.5 1 7.5
v -2.5 0 7.5
v -2.5 1 7.5
v 2.5 0 7.5
v 2.5 1 7.5
v 4.5 0 7.5
v 4.5 1 7.5
v -6.5 0 6.5
v -6.5 1 6.5
v -4.5 0 6.5
v -4.5 1 6.5
v -2.5 1 6.5
v -2.5 4 6.5
v 2.5 1 6.5
v 2.5 4 6.5
v 4.5 0 6.5
v 4.5 1 6.5
v 6.5 0 6.5
v 6.5 1 6.5
v -4.5 1 5.5
v -4.5 4 5.5
v -2.5 1 5.5
v -2.5 4 5.5
v 2.5 1 5.5
v 2.5 4 5.5
v 4.5 1 5.5
v 4.5 4 5.5
v -7.5 0 4.5
v -7.5 1 4.5
v -6.5 0 4.5
v -6.5 1 4.5
v -5.5 1 4.5
v -5.5 4 4.5
v -4.5 1 4.5
v -4.5 4 4.5
v 4.5 1 4.5
v 4.5 4 4.5
v 5.5 1 4.5
v 5.5 4 4.5
v 6.5 0 4.5
v 6.5 1 4.5
v 7.5 0 4.5
v 7.5 1 4.5
v -8.5 0 2.5
v -8.5 1 2.5
v -7.5 0 2.5
v -7.5 1 2.5
v -6.5 1 2.5
v -6.5 4 2.5
v -5.5 1 2.5
v -5.5 4 2.5
v 5.5 1 2.5
v 5.5 4 2.5
v 6.5 1 2.5
v 6.5 4 2.5
v 7.5 0 2.5
v 7.5 1 2.5
v 8.5 0 2.5
v 8.5 1 2.5
v -8.5 0 -2.5
v -8.5 1 -2.5
v -7.5 0 -2.5
v -7.5 1 -2.5
v -6.5 1 -2.5
v -6.5 4 -2.5
v -5.5 1 -2.5
v -5.5 4 -2.5
v 5.5 1 -2.5
v 5.5 4 -2.5
v 6.5 1 -2.5
v 6.5 4 -2.5
v 7.5 0 -2.5
v 7.5 1 -2.5
v 8.5 0 -2.5
v 8.5 1 -2.5
v -7.5 0 -4.5
v -7.5 1 -4.5
v -6.5 0 -4.5
v -6.5 1 -4.5
v -5.5 1 -4.5
v -5.5 4 -4.5
v -4.5 1 -4.5
v -4.5 4 -4.5
v 4.5 1 -4.5
v 4.5 4 -4.5
v 5.5 1 -4.5
v 5.5 4 -4.5
v 6.5 0 -4.5
v 6.5 1 -4.5
v 7.5 0 -4.5
v 7.5 1 -4.5
v -4.5 1 -5.5
v -4.5 4 -5.5
v -2.5 1 -5.5
v -2.5 4 -5.5
v 2.5 1 -5.5
v 2.5 4 -5.5
v 4.5 1 -5.5
v 4.5 4 -5.5
v -6.5 0 -6.5
v -6.5 1 -6.5
v -4.5 0 -6.5
v -4.5 1 -6.5
v -2.5 1 -6.5
v -2.5 4 -6.5
v 2.5 1 -6.5
v 2.5 4 -6.5
v 4.5 0 -6.5
v 4.5 1 -6.5
v 6.5 0 -6.5
v 6.5 1 -6.5
v -4.5 0 -7.5
v -4.5 1 -7.5
v -2.5 0 -7.5
v -2.5 1 -7.5
v 2.5 0 -7.5
v 2.5 1 -7.5
v 4.5 0 -7.5
v 4.5 1 -7.5
v -2.5 0 -8.5
v -2.5 1 -8.5
v 2.5 0 -8.5
v 2.5 1 -8.5
v -2.5 0 8.5
v 2.5 0 8.5
v -4.5 0 7.5
v -2.5 0 7.5
v 2.5 0 7.5
v 4.5 0 7.5
v -6.5 0 6.5
v -4.5 0 6.5
v 4.5 0 6.5
v 6.5 0 6.5
v -7.5 0 4.5
v -6.5 0 4.5
v 6.5 0 4.5
v 7.5 0 4.5
v -8.5 0 2.5
v -7.5 0 2.5
v 7.5 0 2.5
v 8.5 0 2.5
v -8.5 0 -2.5
v -7.5 0 -2.5
v 7.5 0 -2.5
v 8.5 0 -2.5
v -7.5 0 -4.5
v -6.5 0 -4.5
v 6.5 0 -4.5
v 7.5 0 -4.5
v -6.5 0 -6.5
v -4.5 0 -6.5
v 4.5 0 -6.5
v 6.5 0 -6.5
v -4.5 0 -7.5
v -2.5 0 -7.5
v 2.5 0 -7.5
v 4.5 0 -7.5
v -2.5 0 -8.5
v 2.5 0 -8.5
v -2.5 1 8.5
v 2.5 1 8.5
v -4.5 1 7.5
v -2.5 1 7.5
v 2.5 1 7.5
v 4.5 1 7.5
v -6.5 1 6.5
v -4.5 1 6.5
v -2.5 1 6.5
v 2.5 1 6.5
v 4.5 1 6.5
v 6.5 1 6.5
v -4.5 1 5.5
v -2.5 1 5.5
v 2.5 1 5.5
v 4.5 1 5.5
v -7.5 1 4.5
v -6.5 1 4.5
v -5.5 1 4.5
v -4.5 1 4.5
v 4.5 1 4.5
v 5.5 1 4.5
v 6.5 1 4.5
v 7.5 1 4.5
v -8.5 1 2.5
v -7.5 1 2.5
v -6.5 1 2.5
v -5.5 1 2.5
v 5.5 1 2.5
v 6.5 1 2.5
v 7.5 1 2.5
v 8.5 1 2.5
v -8.5 1 -2.5
v -7.5 1 -2.5
v -6.5 1 -2.5
v -5.5 1 -2.5
v 5.5 1 -2.5
v 6.5 1 -2.5
v 7.5 1 -2.5
v 8.5 1 -2.5
v -7.5 1 -4.5
v -6.5 1 -4.5
v -5.5 1 -4.5
v -4.5 1 -4.5
v 4.5 1 -4.5
v 5.5 1 -4.5
v 6.5 1 -4.5
v 7.5 1 -4.5
v -4.5 1 -5.5
v -2.5 1 -5.5
v 2.5 1 -5.5
v 4.5 1 -5.5
v -6.5 1 -6.5
v -4.5 1 -6.5
v -2.5 1 -6.5
v 2.5 1 -6.5
v 4.5 1 -6.5
v 6.5 1 -6.5
v -4.5 1 -7.5
v -2.5 1 -7.5
v 2.5 1 -7.5
v 4.5 1 -7.5
v -2.5 1 -8.5
v 2.5 1 -8.5
v -2.5 4 6.5
v 2.5 4 6.5
v -4.5 4 5.5
v -2.5 4 5.5
v 2.5 4 5.5
v 4.5 4 5.5
v -5.5 4 4.5
v -4.5 4 4.5
v 4.5 4 4.5
v 5.5 4 4.5
v -6.5 4 2.5
v -5.5 4 2.5
v 5.5 4 2.5
v 6.5 4 2.5
v -6.5 4 -2.5
v -5.5 4 -2.5
v 5.5 4 -2.5
v 6.5 4 -2.5
v -5.5 4 -4.5
v -4.5 4 -4.5
v 4.5 4 -4.5
v 5.5 4 -4.5
v -4.5 4 -5.5
v -2.5 4 -5.5
v 2.5 4 -5.5
v 4.5 4 -5.5
v -2.5 4 -6.5
v 2.5 4 -6.5

# faces
f 3/4/1 2/4/1 1/4/1
f 4/4/1 2/4/1 3/4/1
f 9/4/1 6/4/1 5/4/1
f 10/4/1 6/4/1 9/4/1
f 11/4/1 8/4/1 7/4/1
f 12/4/1 8/4/1 11/4/1
f 17/4/1 14/4/1 13/4/1
f 18/4/1 14/4/1 17/4/1
f 21/4/1 16/4/1 15/4/1
f 22/4/1 16/4/1 21/4/1
f 23/3/1 20/3/1 19/3/1
f 24/3/1 20/3/1 23/3/1
f 29/3/1 26/3/1 25/3/1
f 30/3/1 26/3/1 29/3/1
f 31/3/1 28/3/1 27/3/1
f 32/3/1 28/3/1 31/3/1
f 37/4/1 34/4/1 33/4/1
f 38/4/1 34/4/1 37/4/1
f 43/4/1 36/4/1 35/4/1
f 44/4/1 36/4/1 43/4/1
f 45/3/1 40/3/1 39/3/1
f 46/3/1 40/3/1 45/3/1
f 47/3/1 42/3/1 41/3/1
f 48/3/1 42/3/1 47/3/1
f 53/4/1 50/4/1 49/4/1
f 54/4/1 50/4/1 53/4/1
f 59/4/1 52/4/1 51/4/1
f 60/4/1 52/4/1 59/4/1
f 61/3/1 56/3/1 55/3/1
f 62/3/1 56/3/1 61/3/1
f 63/3/1 58/3/1 57/3/1
f 64/3/1 58/3/1 63/3/1
f 65/4/2 66/4/2 69/4/2
f 69/4/2 66/4/2 70/4/2
f 67/4/2 68/4/2 75/4/2
f 75/4/2 68/4/2 76/4/2
f 71/3/2 72/3/2 77/3/2
f 77/3/2 72/3/2 78/3/2
f 73/3/2 74/3/2 79/3/2
f 79/3/2 74/3/2 80/3/2
f 81/4/2 82/4/2 85/4/2
f 85/4/2 82/4/2 86/4/2
f 83/4/2 84/4/2 91/4/2
f 91/4/2 84/4/2 92/4/2
f 87/3/2 88/3/2 93/3/2
f 93/3/2 88/3/2 94/3/2
f 89/3/2 90/3/2 95/3/2
f 95/3/2 90/3/2 96/3/2
f 97/3/2 98/3/2 101/3/2
f 101/3/2 98/3/2 102/3/2
f 99/3/2 100/3/2 103/3/2
f 103/3/2 100/3/2 104/3/2
f 105/4/2 106/4/2 109/4/2
f 109/4/2 106/4/2 110/4/2
f 107/4/2 108/4/2 113/4/2
f 113/4/2 108/4/2 114/4/2
f 111/3/2 112/3/2 115/3/2
f 115/3/2 112/3/2 116/3/2
f 117/4/2 118/4/2 121/4/2
f 121/4/2 118/4/2 122/4/2
f 119/4/2 120/4/2 123/4/2
f 123/4/2 120/4/2 124/4/2
f 125/4/2 126/4/2 127/4/2
f 127/4/2 126/4/2 128/4/2
f 131/4/3 130/4/3 129/4/3
f 132/4/3 130/4/3 131/4/3
f 135/4/3 134/4/3 133/4/3
f 136/4/3 134/4/3 135/4/3
f 139/4/3 138/4/3 137/4/3
f 140/4/3 138/4/3 139/4/3
f 143/4/3 142/4/3 141/4/3
f 144/4/3 142/4/3 143/4/3
f 147/3/3 146/3/3 145/3/3
f 148/3/3 146/3/3 147/3/3
f 151/4/3 150/4/3 149/4/3
f 152/4/3 150/4/3 151/4/3
f 155/3/3 154/3/3 153/3/3
f 156/3/3 154/3/3 155/3/3
f 159/3/3 158/3/3 157/3/3
f 160/3/3 158/3/3 159/3/3
f 163/4/3 162/4/3 161/4/3
f 164/4/3 162/4/3 163/4/3
f 167/3/3 166/3/3 165/3/3
f 168/3/3 166/3/3 167/3/3
f 171/3/3 170/3/3 169/3/3
f 172/3/3 170/3/3 171/3/3
f 175/4/3 174/4/3 173/4/3
f 176/4/3 174/4/3 175/4/3
f 179/4/3 178/4/3 177/4/3
f 180/4/3 178/4/3 179/4/3
f 183/3/3 182/3/3 181/3/3
f 184/3/3 182/3/3 183/3/3
f 187/3/3 186/3/3 185/3/3
f 188/3/3 186/3/3 187/3/3
f 191/4/3 190/4/3 189/4/3
f 192/4/3 190/4/3 191/4/3
f 193/4/4 194/4/4 195/4/4
f 195/4/4 194/4/4 196/4/4
f 197/3/4 198/3/4 199/3/4
f 199/3/4 198/3/4 200/3/4
f 201/3/4 202/3/4 203/3/4
f 203/3/4 202/3/4 204/3/4
f 205/4/4 206/4/4 207/4/4
f 207/4/4 206/4/4 208/4/4
f 209/4/4 210/4/4 211/4/4
f 211/4/4 210/4/4 212/4/4
f 213/3/4 214/3/4 215/3/4
f 215/3/4 214/3/4 216/3/4
f 217/3/4 218/3/4 219/3/4
f 219/3/4 218/3/4 220/3/4
f 221/4/4 222/4/4 223/4/4
f 223/4/4 222/4/4 224/4/4
f 225/3/4 226/3/4 227/3/4
f 227/3/4 226/3/4 228/3/4
f 229/3/4 230/3/4 231/3/4
f 231/3/4 230/3/4 232/3/4
f 233/4/4 234/4/4 235/4/4
f 235/4/4 234/4/4 236/4/4
f 237/3/4 238/3/4 239/3/4
f 239/3/4 238/3/4 240/3/4
f 241/4/4 242/4/4 243/4/4
f 243/4/4 242/4/4 244/4/4
f 245/4/4 246/4/4 247/4/4
f 247/4/4 246/4/4 248/4/4
f 249/4/4 250/4/4 251/4/4
f 251/4/4 250/4/4 252/4/4
f 253/4/4 254/4/4 255/4/4
f 255/4/4 254/4/4 256/4/4
f 260/4/5 258/4/5 257/4/5
f 261/4/5 258/4/5 260/4/5
f 264/4/5 260/4/5 259/4/5
f 264/4/5 262/4/5 261/4/5
f 264/4/5 261/4/5 260/4/5
f 265/4/5 262/4/5 264/4/5
f 268/4/5 264/4/5 263/4/5
f 268/4/5 266/4/5 265/4/5
f 268/4/5 265/4/5 264/4/5
f 269/4/5 266/4/5 268/4/5
f 272/4/5 268/4/5 267/4/5
f 272/4/5 270/4/5 269/4/5
f 272/4/5 269/4/5 268/4/5
f 273/4/5 270/4/5 272/4/5
f 275/4/5 272/4/5 271/4/5
f 275/4/5 274/4/5 273/4/5
f 275/4/5 273/4/5 272/4/5
f 276/4/5 274/4/5 275/4/5
f 277/4/5 274/4/5 276/4/5
f 278/4/5 274/4/5 277/4/5
f 279/4/5 277/4/5 276/4/5
f 280/4/5 277/4/5 279/4/5
f 281/4/5 277/4/5 280/4/5
f 282/4/5 277/4/5 281/4/5
f 283/4/5 281/4/5 280/4/5
f 284/4/5 281/4/5 283/4/5
f 285/4/5 281/4/5 284/4/5
f 286/4/5 281/4/5 285/4/5
f 287/4/5 285/4/5 284/4/5
f 288/4/5 285/4/5 287/4/5
f 289/4/5 285/4/5 288/4/5
f 290/4/5 285/4/5 289/4/5
f 291/4/5 289/4/5 288/4/5
f 292/4/5 289/4/5 291/4/5
f 293/4/6 294/4/6 296/4/6
f 296/4/6 294/4/6 297/4/6
f 295/4/6 296/4/6 300/4/6
f 297/4/6 298/4/6 300/4/6
f 296/4/6 297/4/6 300/4/6
f 300/4/6 298/4/6 301/4/6
f 301/4/6 298/4/6 302/4/6
f 302/4/6 298/4/6 303/4/6
f 299/4/6 300/4/6 305/4/6
f 300/4/6 301/4/6 305/4/6
f 305/4/6 301/4/6 306/4/6
f 303/4/6 304/4/6 307/4/6
f 302/4/6 303/4/6 307/4/6
f 307/4/6 304/4/6 308/4/6
f 299/4/6 305/4/6 310/4/6
f 310/4/6 305/4/6 311/4/6
f 311/4/6 305/4/6 312/4/6
f 308/4/6 304/4/6 313/4/6
f 313/4/6 304/4/6 314/4/6
f 314/4/6 304/4/6 315/4/6
f 309/4/6 310/4/6 318/4/6
f 310/4/6 311/4/6 318/4/6
f 318/4/6 311/4/6 319/4/6
f 319/4/6 311/4/6 320/4/6
f 315/4/6 316/4/6 321/4/6
f 314/4/6 315/4/6 321/4/6
f 321/4/6 316/4/6 322/4/6
f 322/4/6 316/4/6 323/4/6
f 318/4/6 319/4/6 325/4/6
f 317/4/6 318/4/6 325/4/6
f 325/4/6 319/4/6 326/4/6
f 326/4/6 319/4/6 327/4/6
f 323/4/6 324/4/6 330/4/6
f 322/4/6 323/4/6 330/4/6
f 330/4/6 324/4/6 331/4/6
f 331/4/6 324/4/6 332/4/6
f 327/4/6 328/4/6 333/4/6
f 326/4/6 327/4/6 333/4/6
f 333/4/6 328/4/6 334/4/6
f 334/4/6 328/4/6 335/4/6
f 330/4/6 331/4/6 338/4/6
f 329/4/6 330/4/6 338/4/6
f 338/4/6 331/4/6 339/4/6
f 339/4/6 331/4/6 340/4/6
f 335/4/6 336/4/6 341/4/6
f 334/4/6 335/4/6 341/4/6
f 338/4/6 339/4/6 344/4/6
f 337/4/6 338/4/6 344/4/6
f 341/4/6 342/4/6 345/4/6
f 334/4/6 341/4/6 345/4/6
f 345/4/6 342/4/6 346/4/6
f 346/4/6 342/4/6 347/4/6
f 343/4/6 344/4/6 348/4/6
f 344/4/6 339/4/6 349/4/6
f 348/4/6 344/4/6 349/4/6
f 349/4/6 339/4/6 350/4/6
f 346/4/6 347/4/6 351/4/6
f 347/4/6 348/4/6 351/4/6
f 348/4/6 349/4/6 351/4/6
f 351/4/6 349/4/6 352/4/6
f 352/4/6 349/4/6 353/4/6
f 353/4/6 349/4/6 354/4/6
f 352/4/6 353/4/6 355/4/6
f 355/4/6 353/4/6 356/4/6
f 357/3/6 358/3/6 360/3/6
f 360/3/6 358/3/6 361/3/6
f 359/3/6 360/3/6 364/3/6
f 361/3/6 362/3/6 364/3/6
f 360/3/6 361/3/6 364/3/6
f 364/3/6 362/3/6 365/3/6
f 363/3/6 364/3/6 368/3/6
f 365/3/6 366/3/6 368/3/6
f 364/3/6 365/3/6 368/3/6
f 368/3/6 366/3/6 369/3/6
f 367/3/6 368/3/6 371/3/6
f 369/3/6 370/3/6 371/3/6
f 368/3/6 369/3/6 371/3/6
f 371/3/6 370/3/6 372/3/6
f 372/3/6 370/3/6 373/3/6
f 373/3/6 370/3/6 374/3/6
f 372/3/6 373/3/6 375/3/6
f 375/3/6 373/3/6 376/3/6
f 376/3/6 373/3/6 377/3/6
f 377/3/6 373/3/6 378/3/6
f 376/3/6 377/3/6 379/3/6
f 379/3/6 377/3/6 380/3/6
f 380/3/6 377/3/6 381/3/6
f 381/3/6 377/3/6 382/3/6
f 380/3/6 381/3/6 383/3/6
f 383/3/6 381/3/6 384/3/6
